# xmcd
#
# Track frame offsets:
#   150
#   15149
#   33283
#   48966
#   62192
#   76223
#   92356
#   108489
#   121605
#   137063
#   154170
#   168448
#
# Disc length: 2464 seconds
#
# Revision: 0
# Processed by: cddbd v1.5.2PL0 Copyright (c) Steve Scherf et al.
# Submitted via: uFREEDB ActiveX Control 1.5
#
DISCID=83099e0c
DTITLE=variado - explosao sertaneja 2008
DYEAR=2008
DGENRE=Alternative
TTITLE0=victor e leo-borboletas
TTITLE1=maria cecilia e rodolfo-vc d volta
TTITLE2=daniel-quase louco
TTITLE3=jorge e matheus-pirraça
TTITLE4=sandro e willian-impregnado
TTITLE5=edson e hudson e bruno e marrone-imprevisivel
TTITLE6=
TTITLE7=guilherme e santiago-o amor e assim
TTITLE8=bruno e marrone-nao faz assim comigo
TTITLE9=eduardo costa-eun aposto
TTITLE10=joa neto e frederico-dificil
TTITLE11=leonardo-a fila anda
EXTD=
EXTT0=
EXTT1=
EXTT2=
EXTT3=
EXTT4=
EXTT5=
EXTT6=
EXTT7=
EXTT8=
EXTT9=
EXTT10=
EXTT11=
PLAYORDER=
